<?xml version="1.0" encoding="UTF-8" standalone="no"?>
<!-- Created with Inkscape (http://www.inkscape.org/) -->

<svg
   version="1.1"
   id="svg1"
   width="625.01398"
   height="244.5"
   viewBox="0 0 625.01398 244.5"
   sodipodi:docname="watson-next.svg"
   inkscape:version="1.3.2 (091e20ef0f, 2023-11-25)"
   xmlns:inkscape="http://www.inkscape.org/namespaces/inkscape"
   xmlns:sodipodi="http://sodipodi.sourceforge.net/DTD/sodipodi-0.dtd"
   xmlns="http://www.w3.org/2000/svg"
   xmlns:svg="http://www.w3.org/2000/svg">
  <defs
     id="defs1" />
  <sodipodi:namedview
     id="namedview1"
     pagecolor="#0d1117"
     bordercolor="#000000"
     borderopacity="0.25"
     inkscape:showpageshadow="2"
     inkscape:pageopacity="0.0"
     inkscape:pagecheckerboard="0"
     inkscape:deskcolor="#d1d1d1"
     inkscape:zoom="0.83203125"
     inkscape:cx="569.69014"
     inkscape:cy="330.51643"
     inkscape:window-width="1920"
     inkscape:window-height="1048"
     inkscape:window-x="0"
     inkscape:window-y="0"
     inkscape:window-maximized="1"
     inkscape:current-layer="g1" />
  <g
     inkscape:groupmode="layer"
     inkscape:label="Image"
     id="g1"
     transform="translate(-55.989787,-127.5)">
    <path
       style="fill:#f9f004"
       d="m 76.41799,255.08333 c -1.44637,-1.44178 0.0222,-4.19837 2.98589,-5.60474 2.75014,-1.30503 6.11063,-1.55411 17.49732,-1.29692 l 14.09345,0.31833 0.003,3.5 0.003,3.5 H 93.9182 c -9.39535,0 -17.27055,-0.1875 -17.50045,-0.41667 z m 1.10527,-17.25247 c 1.36788,-9.94562 7.98336,-26.14638 15.01909,-36.78045 16.60467,-25.09692 45.55094,-42.67571 73.70765,-44.76197 l 7.75,-0.57423 v 16.46361 16.4636 l -7.56,1.17533 c -8.50448,1.32216 -19.88369,5.72449 -27.10774,10.4873 -12.48019,8.22818 -23.36255,23.5353 -26.40855,37.14623 L 111.68174,243 H 94.24703 76.81232 Z M 63.07895,213.41667 c 0.048,-1.16495 0.28494,-1.4019 0.60416,-0.60417 0.28887,0.72187 0.25335,1.58437 -0.0789,1.91667 -0.3323,0.33229 -0.56864,-0.25834 -0.52522,-1.3125 z M 72,195 c 0,-0.55 0.47656,-1 1.05902,-1 0.58246,0 0.7809,0.45 0.44098,1 -0.33992,0.55 -0.81648,1 -1.05902,1 C 72.19844,196 72,195.55 72,195 Z m 13.8125,-6.68311 c 0.72187,-0.28887 1.58437,-0.25335 1.91667,0.0789 0.33229,0.33229 -0.25834,0.56864 -1.3125,0.52522 -1.16495,-0.048 -1.4019,-0.28494 -0.60417,-0.60416 z M 81,181.28911 c 0,-0.57432 0.7875,-1.66182 1.75,-2.41667 1.61876,-1.26951 1.63998,-1.22245 0.28297,0.62756 -0.80687,1.1 -1.59437,2.1875 -1.75,2.41667 C 81.12734,182.14583 81,181.86343 81,181.28911 Z m 7.50708,-2.27766 c -0.35034,-0.56686 0.0511,-0.7345 0.94098,-0.39301 1.73242,0.66479 2.04939,1.38156 0.61096,1.38156 -0.51754,0 -1.21592,-0.44485 -1.55194,-0.98855 z m 10.3537,-7.0708 -2.36078,-2.05935 2.75,1.67436 c 1.5125,0.9209 2.75,1.84761 2.75,2.05935 0,0.78084 -0.83549,0.33522 -3.13922,-1.67436 z m 6.87043,-2.02081 c 0.35361,-1.3522 0.8069,-1.8055 1.05655,-1.05655 0.24048,0.72144 -0.0382,1.78716 -0.61931,2.36826 -0.74207,0.74207 -0.87221,0.35164 -0.43724,-1.31171 z m -8.69941,-3.51485 c -0.0175,-0.60226 0.83595,-1.88032 1.89654,-2.84014 2.1717,-1.96536 5.15949,-1.4563 7.18313,1.22388 1.09522,1.45054 1.0785,1.52082 -0.1097,0.46127 -2.02107,-1.80225 -6.06371,-1.53662 -7.60972,0.5 -0.73065,0.9625 -1.34275,1.25724 -1.36025,0.65499 z m 17.04715,-11.98832 c 0.048,-1.16495 0.28494,-1.4019 0.60416,-0.60417 0.28887,0.72187 0.25335,1.58437 -0.0789,1.91667 -0.3323,0.33229 -0.56864,-0.25834 -0.52522,-1.3125 z m 6.35438,-2.33627 C 119.92,151.59295 118.6,150.97765 117.5,150.71307 l -2,-0.48107 2,-0.10069 c 2.22625,-0.11208 5.24125,1.46077 4.40437,2.29765 -0.29574,0.29574 -0.9577,0.13889 -1.47104,-0.34856 z m 22.64562,-5.66373 c 0.048,-1.16495 0.28494,-1.4019 0.60416,-0.60417 0.28887,0.72187 0.25335,1.58437 -0.0789,1.91667 -0.3323,0.33229 -0.56864,-0.25834 -0.52522,-1.3125 z"
       id="path8" />
    <path
       style="fill:#0addef"
       d="M 260.92431,339.25 258.5,336.5 l 2.75,2.42431 c 2.57029,2.26589 3.20859,3.07569 2.42431,3.07569 -0.17912,0 -1.41662,-1.2375 -2.75,-2.75 z m -8.48722,-8.5 -2.93709,-3.25 3.25,2.93709 c 3.02946,2.73778 3.70965,3.56291 2.93709,3.56291 -0.1721,0 -1.6346,-1.4625 -3.25,-3.25 z M 176.8125,304.31689 c 0.72187,-0.28887 1.58438,-0.25335 1.91667,0.0789 0.33229,0.33229 -0.25834,0.56864 -1.3125,0.52522 -1.16495,-0.048 -1.4019,-0.28494 -0.60417,-0.60416 z M 189.92431,279.25 187.5,276.5 l 2.75,2.42431 c 2.57029,2.26589 3.20859,3.07569 2.42431,3.07569 -0.17912,0 -1.41662,-1.2375 -2.75,-2.75 z M 163,277.5 c 1.86578,-1.925 3.61733,-3.5 3.89233,-3.5 0.275,0 -1.02655,1.575 -2.89233,3.5 -1.86578,1.925 -3.61733,3.5 -3.89233,3.5 -0.275,0 1.02655,-1.575 2.89233,-3.5 z m -9,0.12244 c 0,-0.20765 0.7875,-0.99515 1.75,-1.75 1.58606,-1.24387 1.62143,-1.2085 0.37756,0.37756 C 154.82119,277.91575 154,278.44548 154,277.62244 Z M 189.87244,269.25 c -1.24387,-1.58606 -1.2085,-1.62143 0.37756,-0.37756 0.9625,0.75485 1.75,1.54235 1.75,1.75 0,0.82304 -0.82119,0.29331 -2.12756,-1.37244 z M 277.33621,253 c 0,-4.125 0.17651,-5.8125 0.39226,-3.75 0.21574,2.0625 0.21574,5.4375 0,7.5 -0.21575,2.0625 -0.39226,0.375 -0.39226,-3.75 z m -142.96192,4.53299 c -0.30962,-0.80686 -0.36997,-2.04436 -0.1341,-2.75 0.23587,-0.70564 0.66592,-0.0455 0.95566,1.46701 0.56574,2.95322 0.099,3.68204 -0.82156,1.28299 z m 25.89474,0.77402 c 0.97297,-0.25354 2.32297,-0.23687 3,0.0371 0.67703,0.27393 -0.11903,0.48137 -1.76903,0.46099 -1.65,-0.0204 -2.20394,-0.2445 -1.23097,-0.49804 z m 27.54347,0.01 c 0.72187,-0.28887 1.58438,-0.25335 1.91667,0.0789 0.33229,0.33229 -0.25834,0.56864 -1.3125,0.52522 -1.16495,-0.048 -1.4019,-0.28494 -0.60417,-0.60416 z M 237.98813,250.25 c -0.0258,-14.68125 -7.33795,-31.46619 -18.57359,-42.63554 -9.66389,-9.60687 -21.9396,-15.66358 -35.97897,-17.75168 L 176,188.75688 V 171.87844 C 176,159.4851 176.31659,155 177.1914,155 c 4.88745,0 24.53986,2.4598 25.46957,3.1879 0.71323,0.55857 1.4109,0.50483 1.80902,-0.13934 C 204.82641,157.47185 204.34148,157 203.39235,157 c -0.94913,0 -1.43859,-0.2871 -1.08769,-0.63799 0.88523,-0.88523 9.69534,1.68362 9.69534,2.82697 0,0.51098 0.45598,0.64724 1.01328,0.30281 0.55731,-0.34443 3.56228,0.54072 6.67771,1.96702 16.17588,7.40556 34.78329,24.12885 43.57765,39.16514 7.55803,12.92245 14.00869,32.40949 13.59972,41.08389 -0.12058,2.55757 -0.19354,2.49809 -0.86836,-0.70784 -0.5249,-2.49371 -0.77457,-0.69677 -0.86836,6.25 L 275,257 H 256.5 238 Z M 226.15789,249 c 0,-1.375 0.22698,-1.9375 0.50439,-1.25 0.27741,0.6875 0.27741,1.8125 0,2.5 -0.27741,0.6875 -0.50439,0.125 -0.50439,-1.25 z M 288.2,243.8 c -0.66,-0.66 -1.2,-2.595 -1.2,-4.3 0,-3.78267 1.56121,-5.5 5,-5.5 4.57687,0 6.48349,4.35956 3.96482,9.06574 -1.17324,2.19222 -5.86335,2.63573 -7.76482,0.73426 z M 159.80064,232.3296 c -1.58718,-1.75633 -1.33277,-1.8413 6.35226,-2.12183 10.10905,-0.369 14.91475,0.94545 6.8471,1.87282 -3.025,0.34772 -6.86034,0.95765 -8.52298,1.35541 -2.29808,0.54977 -3.41946,0.28446 -4.67638,-1.1064 z M 202,217.5 c 2.98742,-3.025 5.65668,-5.5 5.93168,-5.5 0.275,0 -1.94426,2.475 -4.93168,5.5 -2.98742,3.025 -5.65668,5.5 -5.93168,5.5 -0.275,0 1.94426,-2.475 4.93168,-5.5 z m -4.5,-5.5 c 0.99549,-1.1 2.03498,-2 2.30998,-2 0.275,0 -0.31449,0.9 -1.30998,2 -0.99549,1.1 -2.03498,2 -2.30998,2 -0.275,0 0.31449,-0.9 1.30998,-2 z m 83.03647,-2.95971 c -2.40906,-2.66198 -1.33722,-6.80121 1.97652,-7.63291 3.46386,-0.86937 5.31874,0.074 6.07573,3.09009 C 289.3243,207.42826 286.80378,211 284,211 c -0.92951,0 -2.4881,-0.88187 -3.46353,-1.95971 z M 269,187 c -4.10441,-4.10441 -1.3451,-11 4.40172,-11 1.91566,0 3.97915,0.76337 4.94329,1.82874 C 281.98697,181.85305 278.88731,189 273.5,189 c -1.375,0 -3.4,-0.9 -4.5,-2 z M 248.25,171.47797 C 243.92973,168.42234 246.58614,161 252,161 c 2.99168,0 6.02926,3.03977 5.9682,5.97251 -0.0918,4.40917 -5.98888,7.14312 -9.7182,4.50546 z m 20.97826,-14.70816 c -4.32367,-2.08374 -4.30696,-8.31003 0.0288,-10.73544 2.46367,-1.37816 3.02289,-1.37846 5.49292,-0.003 3.79396,2.11277 4.41241,8.04099 1.08219,10.37356 -2.61407,1.83097 -3.46427,1.87794 -6.60393,0.36483 z m -70.41576,-1.45292 c 0.72187,-0.28887 1.58438,-0.25335 1.91667,0.0789 0.33229,0.33229 -0.25834,0.56864 -1.3125,0.52522 -1.16495,-0.048 -1.4019,-0.28494 -0.60417,-0.60416 z m -5.0625,-0.97917 c 0.6875,-0.27741 1.8125,-0.27741 2.5,0 0.6875,0.27741 0.125,0.50439 -1.25,0.50439 -1.375,0 -1.9375,-0.22698 -1.25,-0.50439 z m -6,-1 c 0.6875,-0.27741 1.8125,-0.27741 2.5,0 0.6875,0.27741 0.125,0.50439 -1.25,0.50439 -1.375,0 -1.9375,-0.22698 -1.25,-0.50439 z m -15.97357,-1.07122 c 2.35204,-0.21124 5.95204,-0.20827 8,0.007 2.04796,0.21487 0.12357,0.38771 -4.27643,0.38408 -4.4,-0.004 -6.07561,-0.17944 -3.72357,-0.39069 z M 209.2,148.8 c -2.51775,-2.51775 -0.64052,-6.8 2.98095,-6.8 2.67959,0 3.62565,4.93703 1.27538,6.65559 -2.25534,1.64915 -2.73531,1.66543 -4.25633,0.14441 z m 51.72431,-18.55 -2.42431,-2.75 2.75,2.42431 c 2.57029,2.26589 3.20859,3.07569 2.42431,3.07569 -0.17912,0 -1.41662,-1.2375 -2.75,-2.75 z"
       id="path7" />
    <path
       style="fill:#f7a007"
       d="m 133,370 c -3.9497,-3.9497 -1.60737,-10 3.87143,-10 3.4847,0 5.12857,1.66677 5.12857,5.2 0,3.01544 -3.06104,6.8 -5.5,6.8 -0.825,0 -2.4,-0.9 -3.5,-2 z M 113.10428,355.08561 C 111.4047,354.00945 112.36619,351 114.4096,351 c 1.92209,0 2.74989,1.42079 1.98666,3.40976 -0.69308,1.80612 -1.30768,1.9323 -3.29198,0.67585 z m 18.86937,-26.03896 c -6.01896,-3.1832 -19.1377,-15.23512 -26.71472,-24.54227 l -7.24107,-8.89448 2.12446,-2.26139 c 2.18147,-2.32208 14.49701,-10.88914 17.07664,-11.87904 0.95613,-0.3669 2.72007,1.37128 5.23404,5.15759 6.3993,9.63805 16.23739,18.49407 26.34309,23.71346 4.96188,2.56272 9.83405,4.65948 10.82704,4.65948 1.7117,0 1.71559,0.0899 0.075,1.73045 -1.40222,1.40223 -2.08919,1.50642 -3.62177,0.54931 -1.66058,-1.03705 -2.81514,-0.27219 -9.46385,6.26954 -4.1649,4.09789 -8.36903,7.43081 -9.34252,7.4065 -0.97349,-0.0243 -3.35684,-0.88342 -5.29633,-1.90915 z m 33.70224,-10.44888 C 164.91313,316.61005 165.85032,316 169.66667,316 c 3.70651,0 4.35825,1.38111 1.39907,2.96482 -2.68024,1.43442 -4.75272,1.29328 -5.38985,-0.36705 z M 75.0989,253.25 c 0.13291,-5.03978 1.58284,-15.33583 1.7603,-12.5 0.14032,2.24226 0.20104,2.25 17.6408,2.25 H 112 v 7 7 H 93.5 75 Z m 35.89887,-1.25 -0.003,-3.5 -14.09345,-0.31833 c -11.38669,-0.25719 -14.74718,-0.008 -17.49732,1.29692 -2.9637,1.40637 -4.43226,4.16296 -2.98589,5.60474 0.2299,0.22917 8.1051,0.41667 17.50045,0.41667 h 17.08245 z m -51.52359,-7.24933 c -3.79084,-2.07334 -4.58686,-5.49514 -1.90275,-8.17924 2.28659,-2.2866 5.15002,-1.92619 6.98845,0.87961 2.85967,4.36441 -0.81332,9.63634 -5.0857,7.29963 z M 77.15789,236 c 0,-1.375 0.22698,-1.9375 0.50439,-1.25 0.27741,0.6875 0.27741,1.8125 0,2.5 -0.27741,0.6875 -0.50439,0.125 -0.50439,-1.25 z M 65.72418,216.86552 C 63.53152,215.63844 63.4227,210.43551 65.57244,209.61057 68.02774,208.66839 71,210.79833 71,213.5 c 0,2.94232 -2.81886,4.74051 -5.27582,3.36552 z M 83.07087,217.5 c 0,-0.55 0.64311,-2.125 1.42913,-3.5 0.78602,-1.375 1.42913,-2.05 1.42913,-1.5 0,0.55 -0.64311,2.125 -1.42913,3.5 -0.78602,1.375 -1.42913,2.05 -1.42913,1.5 z M 126,211.68709 c 0,-0.1721 1.4625,-1.6346 3.25,-3.25 l 3.25,-2.93709 -2.93709,3.25 C 126.82513,211.77946 126,212.45965 126,211.68709 Z M 88,207 c 0.5887,-1.1 1.29537,-2 1.57037,-2 0.275,0 0.0183,0.9 -0.57037,2 -0.5887,1.1 -1.29537,2 -1.57037,2 -0.275,0 -0.0183,-0.9 0.57037,-2 z m 3,-5 c 0.5887,-1.1 1.29537,-2 1.57037,-2 0.275,0 0.0183,0.9 -0.57037,2 -0.5887,1.1 -1.29537,2 -1.57037,2 -0.275,0 -0.0183,-0.9 0.57037,-2 z m -17.56528,-2.42408 c -2.01363,-1.47239 -1.38107,-4.27554 1.18721,-5.26108 1.01781,-0.39057 2.16851,0.0457 2.95399,1.11988 2.41562,3.30355 -0.83765,6.55682 -4.1412,4.1412 z M 98.5,192 c 0.99549,-1.1 2.03498,-2 2.30998,-2 0.275,0 -0.31449,0.9 -1.30998,2 -0.99549,1.1 -2.03498,2 -2.30998,2 -0.275,0 0.31449,-0.9 1.30998,-2 z m 70.3125,-2.68311 c 0.72187,-0.28887 1.58437,-0.25335 1.91667,0.0789 0.33229,0.33229 -0.25834,0.56864 -1.3125,0.52522 -1.16495,-0.048 -1.4019,-0.28494 -0.60417,-0.60416 z m -86.24107,-2.88832 c -1.97723,-1.97723 -1.98061,-3.39937 -0.0147,-6.20606 2.37831,-3.39551 7.07932,-2.3596 8.67983,1.91269 1.6106,4.29918 -5.25669,7.70178 -8.6651,4.29337 z M 174.36996,178 c 0,-5.775 0.16528,-8.1375 0.36728,-5.25 0.202,2.8875 0.202,7.6125 0,10.5 -0.202,2.8875 -0.36728,0.525 -0.36728,-5.25 z M 111.5,179 c 0.99549,-1.1 2.03498,-2 2.30998,-2 0.275,0 -0.31449,0.9 -1.30998,2 -0.99549,1.1 -2.03498,2 -2.30998,2 -0.275,0 0.31449,-0.9 1.30998,-2 z m -12.61568,-7.89259 c -2.14563,-1.73743 -2.22284,-2.10635 -0.9418,-4.5 1.56152,-2.91773 5.98762,-3.60143 7.95653,-1.22905 1.44263,1.73827 -0.0527,6.0829 -2.40423,6.98526 -2.18569,0.83872 -1.94105,0.90538 -4.6105,-1.25621 z m 17.16136,-13.55237 c -0.65956,-0.79472 -1.05216,-2.48222 -0.87244,-3.75 0.45207,-3.18899 4.16457,-3.58853 6.20997,-0.66832 1.43912,2.05463 1.43403,2.40774 -0.0584,4.0569 -1.97452,2.18182 -3.67186,2.29803 -5.2791,0.36142 z m 20.52575,-8.12647 c -1.84273,-1.84273 -1.94264,-2.86643 -0.53625,-5.49431 2.08325,-3.89259 6.96482,-1.67865 6.96482,3.15875 0,3.83537 -3.61529,5.14884 -6.42857,2.33556 z"
       id="path6" />
    <path
       style="fill:#9403f7"
       d="m 180.8125,357.31689 c 0.72187,-0.28887 1.58438,-0.25335 1.91667,0.0789 0.33229,0.33229 -0.25834,0.56864 -1.3125,0.52522 -1.16495,-0.048 -1.4019,-0.28494 -0.60417,-0.60416 z M 174.625,351.875 C 174.28125,350.15625 174,341.60625 174,332.875 V 317 h 4.34004 c 6.84775,0 19.31362,-3.63945 27.39326,-7.99756 5.60194,-3.02165 7.84201,-3.76491 9.18331,-3.04707 2.82054,1.50951 24.14533,24.35882 23.7738,25.4734 -0.35492,1.06477 -11.69165,9.43384 -12.8964,9.52047 -0.3883,0.0279 -2.8633,1.31417 -5.5,2.85833 -7.51071,4.39859 -18.84447,8.1733 -29.25102,9.74206 -14.48619,2.18375 -15.67047,2.06296 -16.41799,-1.67463 z M 98.87244,325.25 c -1.24387,-1.58606 -1.2085,-1.62143 0.37756,-0.37756 0.9625,0.75485 1.75,1.54235 1.75,1.75 0,0.82304 -0.82119,0.29331 -2.12756,-1.37244 z"
       id="path5" />
    <path
       style="fill:#f02819"
       d="m 161.11938,356.8843 c -4.05934,-0.47092 -7.94948,-1.32833 -8.64474,-1.90535 -0.69527,-0.57702 -1.64899,-0.94222 -2.11938,-0.81156 -1.86483,0.51797 -8.37444,-1.32734 -7.82403,-2.21792 C 142.85397,351.42726 142.02368,351 140.68614,351 138.38225,351 129.06992,347.40899 128,346.10799 c -0.275,-0.33439 -1.04775,-0.71557 -1.71722,-0.84706 -4.56827,-0.89725 -23.35026,-14.87371 -25.98768,-19.33851 C 99.34563,324.31509 98.25534,323 97.87224,323 96.67059,323 88.95443,311.04805 85.0293,303.10693 80.11003,293.15451 76.03888,276.89872 75.73612,266 L 75.5,257.5 93.75,257.22744 112,256.95488 v 2.47551 c 0,1.36153 0.40921,3.50918 0.90937,4.77256 0.50015,1.26338 1.644,4.81134 2.5419,7.88437 0.89789,3.07302 2.31005,6.5546 3.13812,7.73683 1.11002,1.58479 1.16127,2.0174 0.19505,1.64663 -1.4439,-0.55408 -15.16081,8.17205 -18.59918,11.83202 l -2.1674,2.3071 7.24107,8.89448 C 116.15493,317.88836 132.09994,331 137.48014,331 c 0.8579,0 4.96746,-3.35281 9.13236,-7.4507 6.57799,-6.47214 7.81571,-7.29882 9.42408,-6.29438 1.47966,0.92406 2.23498,0.80929 3.76064,-0.5714 1.30484,-1.18087 2.56972,-1.48333 3.99627,-0.95562 C 165.79755,316.46925 166,316.76947 166,319 c 0,1.73621 3.91655,1.08345 6,-1 2,-2 2,-2 2.17857,15.5 0.0982,9.625 0.21072,18.5125 0.25,19.75 0.0508,1.59946 -0.57911,2.34239 -2.17857,2.56955 -1.2375,0.17575 -2.25,0.73825 -2.25,1.25 0,0.51175 -0.3375,0.87207 -0.75,0.80071 -0.4125,-0.0713 -4.07128,-0.51503 -8.13062,-0.98596 z M 95.25,344.90082 c -2.48506,-0.92375 -3.07327,-4.67755 -1.05,-6.70082 3.32281,-3.32281 9.05439,0.58764 6.86296,4.68235 -1.31239,2.45223 -3.036,3.05073 -5.81296,2.01847 z m 62.5625,-30.58393 c 0.72187,-0.28887 1.58437,-0.25335 1.91667,0.0789 0.33229,0.33229 -0.25834,0.56864 -1.3125,0.52522 -1.16495,-0.048 -1.4019,-0.28494 -0.60417,-0.60416 z m -86.10365,-1.94137 c -1.54425,-1.54425 -0.67048,-5.25292 1.39181,-5.90747 2.66349,-0.84536 4.16393,0.62801 3.734,3.66661 -0.32957,2.3294 -3.60525,3.76142 -5.12581,2.24086 z"
       id="path4" />
    <path
       style="fill:#1428d8"
       d="M 267.20821,357.71215 C 264.89369,355.35383 263,353.03618 263,352.56182 c 0,-1.37434 5.34428,-12.02705 6.21947,-12.39723 0.43614,-0.18448 0.56197,-0.70921 0.27961,-1.16608 -0.28236,-0.45687 1.60101,-2.638 4.18526,-4.84695 l 4.69865,-4.01628 3.55851,2.84414 c 1.95717,1.56428 5.1297,4.47992 7.05007,6.4792 l 3.49156,3.63506 -9.99156,9.44834 c -5.49537,5.19659 -10.23538,9.45051 -10.53336,9.45316 -0.29799,0.003 -2.43549,-1.92471 -4.75,-4.28303 z m -90.93918,-0.40514 c 0.97297,-0.25354 2.32297,-0.23687 3,0.0371 0.67703,0.27393 -0.11903,0.48137 -1.76903,0.46099 -1.65,-0.0204 -2.20394,-0.2445 -1.23097,-0.49804 z m 5.23097,-1.2336 -7,-0.57341 11.5,-1.29585 c 12.6111,-1.42106 25.88217,-5.4177 34.12172,-10.27592 2.73146,-1.61053 5.28399,-2.95107 5.67229,-2.97899 1.20475,-0.0866 12.54148,-8.4557 12.8964,-9.52047 0.37153,-1.11458 -20.95326,-23.96389 -23.7738,-25.4734 -1.3413,-0.71784 -3.58137,0.0254 -9.18331,3.04707 -8.17702,4.41063 -20.81057,8.07082 -27.14326,7.86395 L 174.5,316.73277 179,315.99043 c 10.0791,-1.66272 21.38809,-5.85595 31,-11.49442 4.46551,-2.61952 6.51462,-1.8302 13.51706,5.20678 C 232.44046,318.6702 241,328.48353 241,329.7466 c 0,2.21916 -3.00026,6.63616 -4.67454,6.8819 -0.97387,0.14293 -2.36487,1.07249 -3.09111,2.06569 -0.72625,0.99319 -1.75107,1.86206 -2.2774,1.93081 -0.52632,0.0688 -1.43351,0.18125 -2.01597,0.25 -0.58246,0.0688 -0.73793,0.64453 -0.34549,1.27951 0.42809,0.69266 0.27573,0.88394 -0.38086,0.47814 -1.33133,-0.82281 -7.50075,2.7479 -6.49152,3.75713 0.39376,0.39376 -0.13168,0.39067 -1.16764,-0.007 -1.30195,-0.4996 -1.66248,-0.36507 -1.16758,0.4357 0.48251,0.78071 0.15642,0.94376 -1,0.5 -1.15641,-0.44376 -1.4825,-0.28072 -1,0.5 0.48251,0.78071 0.15642,0.94376 -1,0.5 -1.0958,-0.4205 -1.47549,-0.26936 -1.05056,0.41819 0.43064,0.69678 -0.0959,0.87758 -1.49232,0.51242 -1.46765,-0.3838 -1.93122,-0.19773 -1.44944,0.5818 0.4592,0.74301 0.16251,0.93663 -0.84363,0.55054 -0.85357,-0.32755 -1.55226,-0.20989 -1.55265,0.26145 -3.8e-4,0.47135 -1.22406,0.92803 -2.71928,1.01486 -1.49523,0.0868 -2.87398,0.62404 -3.06391,1.19382 -0.18992,0.56978 -0.94572,0.80556 -1.67956,0.52396 -0.73383,-0.2816 -1.61917,-0.051 -1.96741,0.5125 -0.34825,0.56348 -1.24825,0.78848 -2,0.5 -0.75176,-0.28847 -1.63743,-0.0867 -1.96817,0.44849 -0.33074,0.53515 -2.51376,0.78376 -4.85115,0.55247 -3.19182,-0.31583 -3.75191,-0.18516 -2.24981,0.5249 1.18558,0.56043 1.38918,0.90213 0.5,0.83912 -0.825,-0.0585 -4.65,-0.36434 -8.5,-0.67972 z M 256.87244,335.25 c -1.24387,-1.58606 -1.2085,-1.62143 0.37756,-0.37756 1.66575,1.30637 2.19548,2.12756 1.37244,2.12756 -0.20765,0 -0.99515,-0.7875 -1.75,-1.75 z M 242,323 c -1.1749,-1.65 -2.97522,-3 -4.00071,-3 -1.05392,0 -2.1742,-0.97573 -2.57685,-2.24436 -0.39178,-1.2344 -4.2471,-6.05736 -8.56738,-10.71769 -8.05404,-8.68796 -9.05529,-10.79696 -6.23653,-13.13632 C 222.74838,292.13401 232,278.39956 232,277.00532 c 0,-0.59675 0.82528,-2.75457 1.83395,-4.79516 1.00867,-2.04059 2.39094,-6.29766 3.07171,-9.46016 l 1.23777,-5.75 h 18.42829 c 14.04215,0 18.44337,-0.29751 18.49167,-1.25 0.0349,-0.6875 0.47929,-0.21336 0.98761,1.05363 1.86403,4.64607 -1.39958,25.54458 -5.5745,35.69637 -3.25879,7.92411 -6.72944,14.5 -7.65287,14.5 -0.51791,0 -0.70305,0.38608 -0.41142,0.85796 0.70644,1.14303 -6.3665,10.53458 -11.12005,14.76536 C 246.62211,326.77978 244.74561,326.85585 242,323 Z m -53.75,-70.68933 c 0.9625,-0.25152 2.5375,-0.25152 3.5,0 0.9625,0.25153 0.175,0.45733 -1.75,0.45733 -1.925,0 -2.7125,-0.2058 -1.75,-0.45733 z m 12.03017,-0.0469 c 2.6291,-0.20668 6.6791,-0.20418 9,0.006 2.32091,0.20972 0.16983,0.37882 -4.78017,0.37577 -4.95,-0.003 -6.84892,-0.17464 -4.21983,-0.38131 z M 148.87244,220.25 c -1.24387,-1.58606 -1.2085,-1.62143 0.37756,-0.37756 0.9625,0.75485 1.75,1.54235 1.75,1.75 0,0.82304 -0.82119,0.29331 -2.12756,-1.37244 z"
       id="path3" />
    <path
       style="fill:#093768"
       d="m 173.70124,371.3679 c -1.00269,-1.00269 -0.86641,-4.14779 0.20852,-4.81213 1.75672,-1.08571 4.19898,0.67789 3.89311,2.81129 -0.30299,2.11332 -2.78056,3.32192 -4.10163,2.00084 z M 225.064,361.57711 C 223.51166,359.70666 224.49667,358 227.12857,358 c 1.49494,0 1.92858,0.55692 1.69098,2.17167 -0.39931,2.71374 -2.13171,3.36205 -3.75555,1.40544 z M 170,356.9687 c 0,-0.53279 0.7875,-0.96937 1.75,-0.97019 0.9625,-8.3e-4 6.475,-0.15262 12.25,-0.33733 11.43137,-0.36562 7.81266,0.68912 -5.75,1.67594 -5.06872,0.36881 -8.25,0.22674 -8.25,-0.36842 z M 205.5,352 c 2.74909,-1.18132 4.32797,-1.18132 2.5,0 -0.825,0.53316 -2.175,0.94464 -3,0.9144 -0.98906,-0.0362 -0.81874,-0.34772 0.5,-0.9144 z m 47.2467,-9.22486 c -8.83893,-9.44632 -9.78111,-10.17363 -11.68058,-9.01667 -1.13636,0.69216 -2.06612,0.83122 -2.06612,0.30902 0,-0.5222 0.45,-1.22757 1,-1.56749 2.839,-1.7546 -1.48572,-7.72602 -16.58441,-22.89919 -6.08209,-6.11208 -7.0912,-6.75286 -9.91335,-6.29489 -1.72809,0.28043 -4.78836,1.62714 -6.80059,2.99267 -3.24181,2.19996 -9.83693,4.79585 -21.9943,8.65713 -9.27806,2.94679 -25.51694,0.68843 -37.20059,-5.17354 C 133.60444,302.80705 119.24823,285.63997 115.0746,271 c -0.70558,-2.475 -1.68602,-5.53367 -2.17874,-6.79705 -1.40339,-3.5984 -1.02689,-21.11862 0.58459,-27.20295 6.40749,-24.19238 28.05111,-43.39268 52.87788,-46.90859 3.61505,-0.51195 7.03831,-1.21851 7.60724,-1.57013 1.18418,-0.73187 1.33252,-10.01454 0.37548,-23.4973 l -0.65894,-9.28327 -8.59106,0.55941 c -21.51542,1.40099 -42.83838,11.70804 -59.82501,28.9181 -8.93926,9.05685 -13.2349,14.71189 -18.23993,24.0122 -11.96027,22.22443 -15.02822,49.55491 -8.4738,75.48772 1.4988,5.93002 3.59406,12.51297 4.65615,14.62877 1.06208,2.11579 1.68598,4.09198 1.38643,4.39153 -1.5398,1.5398 -7.81335,-17.82774 -10.08024,-31.11943 -5.35662,-31.40802 2.71217,-60.59834 23.17865,-83.853 13.8783,-15.76897 32.57218,-27.88719 50.8067,-32.93522 10.86531,-3.00794 36.95204,-3.28038 48.76482,-0.50928 4.41794,1.03638 7.50455,2.24265 7.16097,2.79856 -0.36686,0.59359 -1.05948,0.62021 -1.76482,0.0678 C 201.73126,157.4598 182.07885,155 177.1914,155 176.31651,155 176,159.49137 176,171.90616 v 16.90616 l 5.25,0.68163 c 22.14652,2.87534 40.28068,15.53506 49.64192,34.65575 2.24851,4.59267 4.76767,11.03234 5.59814,14.3104 2.70048,10.65943 1.42566,26.00083 -2.84717,34.26358 C 232.7393,274.47103 232,276.39335 232,276.9955 c 0,1.4015 -9.24334,15.13164 -11.38147,16.90613 -2.81876,2.33936 -1.81751,4.44836 6.23653,13.13632 4.32028,4.66033 8.1756,9.48329 8.56738,10.71769 0.40265,1.26863 1.52293,2.24436 2.57685,2.24436 1.02549,0 2.82581,1.35 4.00071,3 2.4366,3.42189 4.44045,3.75941 7.42126,1.25 2.04231,-1.71933 2.04855,-1.71409 0.35572,0.29892 -1.67668,1.99383 -1.49522,2.27553 6.74777,10.4757 8.42917,8.38539 8.47844,8.41584 10.02972,6.20108 0.85742,-1.22414 2.00116,-2.2257 2.54166,-2.2257 0.59014,0 0.55007,0.49936 -0.1003,1.25 -0.59566,0.6875 -2.33214,3.84881 -3.85885,7.02514 l -2.77583,5.77515 z m -61.42309,-41.10351 c 17.06269,-6.19342 29.64978,-19.95409 34.1873,-37.37482 4.03808,-15.50323 -1.067,-34.90379 -12.44571,-47.29681 l -5.04985,-5.5 -7.48228,7.79877 c -6.59143,6.87024 -7.72343,7.66972 -9.50768,6.71482 C 189.91143,225.41741 189,224.70125 189,224.42212 c 0,-0.47233 5.04219,-7.23805 10.22508,-13.72023 2.61273,-3.26771 2.42532,-3.47309 -6.22508,-6.82186 -7.81053,-3.02363 -22.63458,-3.70959 -30.53476,-1.41295 -4.8898,1.4215 -12.8965,4.82903 -14.32075,6.09468 -0.19553,0.17376 1.63753,2.93094 4.07347,6.12708 6.17698,8.10469 6.24115,8.25496 4.17158,9.76827 -1.61552,1.1813 -2.48962,0.63507 -8.10765,-5.06653 -3.4633,-3.51482 -6.63103,-6.39036 -7.0394,-6.39009 -1.18979,7.9e-4 -8.64811,9.08441 -11.56538,14.08568 -2.99434,5.1334 -6.68627,18.34048 -6.65975,23.82379 0.0309,6.38427 2.88397,17.34984 6.48967,24.94243 6.3641,13.40098 22.01421,25.6218 36.04599,28.1475 7.42626,1.33672 18.4067,0.34469 25.77059,-2.32826 z M 189.25082,278.24593 176.00164,264.5 163.48928,277.48761 c -10.67162,11.07695 -12.76811,12.82654 -14.25082,11.89281 -0.95615,-0.60213 -1.85678,-1.72155 -2.00138,-2.4876 -0.14461,-0.76605 4.62491,-6.48105 10.59893,-12.7 l 10.86187,-11.30719 -1.92152,-2.44281 C 164.89205,258.04731 164.56575,258 149.92742,258 H 135 v -3 -3 h 14.94543 14.94544 l 1.30456,-2.75 c 1.88378,-3.97096 7.49235,-6.48673 11.74334,-5.26756 3.96468,1.13706 6.95545,3.64061 8.18237,6.84944 0.765,2.00074 1.49422,2.29615 5.13524,2.08029 2.33399,-0.13837 8.88742,-0.17521 14.56317,-0.0819 10.08806,0.16589 10.31238,0.22017 10,2.4197 -0.31285,2.20285 -0.62934,2.2558 -15.10326,2.52693 -14.57244,0.27296 -14.79955,0.31171 -15.89276,2.71103 -1.03115,2.26313 -0.38938,3.18789 9.13656,13.16523 5.63509,5.90211 10.96183,11.8242 11.83721,13.1602 1.47968,2.25829 1.45901,2.52602 -0.29398,3.80784 -1.03707,0.75833 -2.13707,1.37694 -2.44445,1.3747 -0.30738,-0.002 -6.521,-6.18973 -13.80805,-13.75 z m -48.43832,73.07096 c 0.72187,-0.28887 1.58437,-0.25335 1.91667,0.0789 0.33229,0.33229 -0.25834,0.56864 -1.3125,0.52522 -1.16495,-0.048 -1.4019,-0.28494 -0.60417,-0.60416 z m 74.06587,-2.8012 c 2.95811,-1.38369 7.90811,-3.90118 11,-5.59441 3.0919,-1.69324 4.72163,-2.33144 3.62163,-1.41822 -2.53956,2.10834 -14.20598,8.02926 -17.5,8.88157 -1.375,0.35578 -0.0797,-0.48525 2.87837,-1.86894 z M 233,338.61501 c 0,-0.21174 1.2375,-1.18141 2.75,-2.1548 l 2.75,-1.76981 -1.90499,2.1548 C 234.90926,338.75202 233,339.69194 233,338.61501 Z M 81,325.692 c 0,-0.79591 0.7093,-2.03577 1.57622,-2.75525 1.30629,-1.08413 1.73162,-1.06229 2.48374,0.12755 1.29417,2.04736 0.62104,3.38602 -1.88829,3.75525 C 81.79603,327.02197 81,326.60866 81,325.692 Z m 10.87244,-9.442 c -1.24387,-1.58606 -1.2085,-1.62143 0.37756,-0.37756 1.66575,1.30637 2.19548,2.12756 1.37244,2.12756 -0.20765,0 -0.99515,-0.7875 -1.75,-1.75 z M 86.5,308 c -0.85325,-1.65 -1.32636,-3 -1.05136,-3 0.275,0 1.19811,1.35 2.05136,3 0.85325,1.65 1.32636,3 1.05136,3 -0.275,0 -1.19811,-1.35 -2.05136,-3 z M 286.10428,293.06476 C 284.40161,292.01207 285.36888,289 287.4096,289 c 2.1956,0 3.01628,2.00275 1.45872,3.5598 -0.85934,0.85906 -1.88749,1.04689 -2.76404,0.50496 z M 63.27814,291.87814 C 61.74917,290.34917 62.80651,288 65.02366,288 c 1.94445,0 2.96668,1.72514 2.22204,3.75 -0.57106,1.55288 -2.48112,1.61458 -3.96756,0.12814 z m -4.5769,-26.51024 c -1.18199,-1.18199 -0.77901,-4.12408 0.63944,-4.66839 2.01563,-0.77347 3.90297,0.79679 3.49623,2.90883 -0.37094,1.92615 -2.89514,3.00009 -4.13567,1.75956 z m 230.25711,-0.91809 c -1.06129,-1.27878 -1.00398,-1.83275 0.32736,-3.1641 1.33135,-1.33134 1.88532,-1.38865 3.1641,-0.32736 1.99576,1.65633 1.98147,3.66218 -0.0316,4.43466 -2.09337,0.8033 -1.98613,0.83254 -3.45986,-0.9432 z M 275.76365,256 c -0.40499,-1.375 -0.7288,-5.2 -0.71959,-8.5 0.0127,-4.54413 0.26315,-5.57704 1.0322,-4.25687 0.55849,0.95872 0.8823,4.78372 0.71959,8.5 -0.21193,4.84031 -0.50471,6.04775 -1.0322,4.25687 z m -26.87114,-112.6109 -3.38629,-3.49377 6.458,-5.93921 6.458,-5.93922 3.28889,3.18772 C 263.52,132.95786 265,134.67415 265,135.01859 c 0,0.34444 -2.86227,3.1548 -6.3606,6.24526 l -6.3606,5.61901 z M 174.25,144.28172 c -1.28465,-0.46081 -1.71788,-3.48051 -0.65223,-4.54615 1.1032,-1.10321 3.40223,0.45938 3.40223,2.3124 0,2.10467 -0.95265,2.87848 -2.75,2.23375 z"
       id="path2" />
    <path
       style="font-size:106.667px;font-family:'Open Sans';-inkscape-font-specification:'Open Sans';fill:#999999"
       d="m 383.73974,262.31271 -10.46879,-33.48968 q -0.98958,-3.07293 -3.69792,-13.95838 h -0.41667 q -2.08334,9.11461 -3.64585,14.06254 l -10.78128,33.38552 H 344.7292 L 329.15623,205.2292 h 9.06253 q 5.52085,21.51049 8.38544,32.76052 2.91668,11.25004 3.33335,15.1563 h 0.41667 q 0.57291,-2.96876 1.82292,-7.65628 1.30209,-4.73959 2.23959,-7.50002 l 10.46878,-32.76052 h 9.37503 l 10.20837,32.76052 q 2.91667,8.95836 3.95834,15.05213 h 0.41667 q 0.20833,-1.875 1.09375,-5.78127 0.93751,-3.90626 10.88545,-42.03138 h 8.95837 l -15.7813,57.08351 z m 71.45855,0 -1.71875,-8.12502 h -0.41667 q -4.27085,5.3646 -8.54169,7.29169 -4.21877,1.875 -10.57295,1.875 -8.48961,0 -13.33338,-4.37501 -4.79168,-4.37501 -4.79168,-12.44796 0,-17.29172 27.65634,-18.12505 l 9.68753,-0.3125 v -3.54168 q 0,-6.71877 -2.91668,-9.89587 -2.86459,-3.22917 -9.21878,-3.22917 -7.13544,0 -16.14588,4.37501 l -2.65626,-6.6146 q 4.21876,-2.29168 9.21878,-3.59376 5.0521,-1.30209 10.1042,-1.30209 10.20836,0 15.10421,4.53126 4.94793,4.53127 4.94793,14.5313 v 38.95845 z m -19.53131,-6.09377 q 8.07294,0 12.65629,-4.42709 4.63543,-4.4271 4.63543,-12.39587 v -5.15627 l -8.64586,0.36458 q -10.31253,0.36459 -14.89588,3.22918 -4.53126,2.81251 -4.53126,8.80211 0,4.68752 2.81251,7.13544 2.86459,2.44792 7.96877,2.44792 z m 62.1877,0 q 2.29167,0 4.4271,-0.3125 2.13542,-0.36458 3.38542,-0.72917 v 6.61461 q -1.40625,0.67708 -4.16668,1.09375 -2.70834,0.46875 -4.89584,0.46875 -16.56256,0 -16.56256,-17.44797 v -33.95844 h -8.1771 v -4.16668 l 8.1771,-3.59376 3.64585,-12.18754 h 5.00001 v 13.22921 h 16.56256 v 6.71877 h -16.56256 v 33.59386 q 0,5.15626 2.44793,7.91669 2.44792,2.76042 6.71877,2.76042 z m 56.04185,-9.47919 q 0,7.96877 -5.93752,12.2917 -5.93752,4.32293 -16.66672,4.32293 -11.3542,0 -17.70839,-3.59376 v -8.02086 q 4.1146,2.08334 8.80211,3.28126 4.7396,1.19792 9.11461,1.19792 6.77086,0 10.4167,-2.13542 3.64585,-2.18751 3.64585,-6.6146 0,-3.33335 -2.91668,-5.6771 -2.86459,-2.39584 -11.25003,-5.62502 -7.96878,-2.96876 -11.35421,-5.15627 -3.33334,-2.23959 -5.00001,-5.0521 -1.61459,-2.81251 -1.61459,-6.71877 0,-6.97919 5.6771,-10.98962 5.6771,-4.06251 15.57297,-4.06251 9.21878,0 18.02089,3.75001 l -3.07293,7.03128 q -8.59378,-3.54168 -15.57297,-3.54168 -6.14585,0 -9.27086,1.92709 -3.12501,1.92709 -3.12501,5.31251 0,2.29168 1.14584,3.90627 1.19792,1.61458 3.80209,3.07292 2.60418,1.45834 10.00004,4.21877 10.15628,3.69792 13.69796,7.44794 3.59376,3.75001 3.59376,9.42711 z m 63.33351,-13.02088 q 0,13.95838 -7.03127,21.82299 -7.03127,7.81252 -19.42715,7.81252 -7.65627,0 -13.59379,-3.59376 -5.93752,-3.59376 -9.16669,-10.31253 -3.22918,-6.71877 -3.22918,-15.72922 0,-13.95837 6.97919,-21.71881 6.97919,-7.81253 19.37506,-7.81253 11.9792,0 19.01048,7.96878 7.08335,7.96877 7.08335,21.56256 z m -43.48972,0 q 0,10.93754 4.37502,16.66672 4.37501,5.72919 12.86462,5.72919 8.48961,0 12.86462,-5.6771 4.4271,-5.72919 4.4271,-16.71881 0,-10.88545 -4.4271,-16.51046 -4.37501,-5.6771 -12.96879,-5.6771 -8.48961,0 -12.81254,5.57293 -4.32293,5.57293 -4.32293,16.61463 z m 97.70866,28.59384 v -36.9272 q 0,-6.97918 -3.17709,-10.41669 -3.17709,-3.43751 -9.94795,-3.43751 -8.95836,0 -13.12504,4.84376 -4.16668,4.84377 -4.16668,15.98963 v 29.94801 h -8.64586 V 205.2292 h 7.03127 l 1.40626,7.81253 h 0.41667 q 2.65625,-4.21877 7.44794,-6.51044 4.79168,-2.34376 10.67711,-2.34376 10.31253,0 15.52088,5.00002 5.20835,4.94793 5.20835,15.88546 v 37.2397 z"
       id="text9-3"
       aria-label="watson" />
    <path
       style="font-weight:300;font-size:80px;font-family:'Open Sans';-inkscape-font-specification:'Open Sans Light';fill:#666666"
       d="m 563.66003,321.60217 v -27.53906 q 0,-6.40625 -2.69531,-9.29687 -2.69531,-2.92969 -8.35937,-2.92969 -7.61719,0 -11.17188,3.86719 -3.51562,3.82812 -3.51562,12.46093 v 23.4375 h -3.86719 v -42.46093 h 3.28125 l 0.74219,5.82031 h 0.23437 q 4.14063,-6.64063 14.72656,-6.64063 14.45313,0 14.45313,15.50782 v 27.77343 z m 34.72657,0.78125 q -9.25782,0 -14.45313,-5.70312 -5.15625,-5.70313 -5.15625,-15.97656 0,-10.15625 5,-16.25 5,-6.13282 13.47656,-6.13282 7.5,0 11.83594,5.23438 4.33594,5.23437 4.33594,14.21875 v 3.125 h -30.58594 q 0.0781,8.75 4.0625,13.35937 4.02344,4.60938 11.48438,4.60938 3.63281,0 6.36718,-0.50781 2.77344,-0.50782 6.99219,-2.1875 v 3.51562 q -3.59375,1.5625 -6.64062,2.10938 -3.04688,0.58593 -6.71875,0.58593 z m -1.13282,-40.625 q -6.13281,0 -9.84375,4.0625 -3.71093,4.02344 -4.33593,11.64063 h 26.25 q 0,-7.38281 -3.20313,-11.52344 -3.20312,-4.17969 -8.86719,-4.17969 z m 36.71875,18.00782 -14.80468,-20.625 h 4.45312 l 12.65625,17.89062 12.53906,-17.89062 h 4.25782 l -14.57032,20.625 15.625,21.83593 h -4.49218 l -13.35938,-18.94531 -13.4375,18.94531 h -4.25781 z m 40.625,19.17968 q 3.67188,0 6.40625,-0.625 v 3.125 q -2.8125,0.9375 -6.48437,0.9375 -5.625,0 -8.32031,-3.00781 -2.65625,-3.00781 -2.65625,-9.45312 v -27.42188 h -6.28907 v -2.26562 l 6.28907,-1.75782 1.95312,-9.60937 h 1.99219 v 10.27344 h 12.46094 v 3.35937 h -12.46094 v 26.875 q 0,4.88281 1.71875,7.22656 1.71875,2.34375 5.39062,2.34375 z"
       id="text9-2"
       aria-label="next" />
  </g>
</svg>
